<svg viewBox="0 0 100 100" xmlns="http://www.w3.org/2000/svg">
  <!-- Background Circle -->
  <circle cx="50" cy="50" r="45" fill="#0891b2" stroke="#0e7490" stroke-width="2"/>
  
  <!-- Dollar Sign -->
  <path d="M45 20 L45 25 M45 75 L45 80 M35 30 Q35 25 40 25 L55 25 Q60 25 60 30 Q60 35 55 35 L40 35 Q35 35 35 40 Q35 45 40 45 L55 45 Q60 45 60 50 Q60 55 55 55 L40 55 Q35 55 35 60 Q35 65 40 65 L55 65 Q60 65 60 70 Q60 75 55 75 L40 75 Q35 75 35 70" 
        stroke="white" stroke-width="3" fill="none" stroke-linecap="round"/>
  
  <!-- Chart Lines -->
  <polyline points="20,65 30,55 40,60 50,45 60,50 70,35 80,40" 
            stroke="white" stroke-width="2.5" fill="none" stroke-linecap="round"/>
  
  <!-- Chart Points -->
  <circle cx="30" cy="55" r="2" fill="white"/>
  <circle cx="40" cy="60" r="2" fill="white"/>
  <circle cx="50" cy="45" r="2" fill="white"/>
  <circle cx="60" cy="50" r="2" fill="white"/>
  <circle cx="70" cy="35" r="2" fill="white"/>
</svg>