<svg viewBox="0 0 32 32" xmlns="http://www.w3.org/2000/svg">
  <!-- Background Circle -->
  <circle cx="16" cy="16" r="14" fill="#0891b2"/>
  
  <!-- Dollar Sign -->
  <path d="M14 6 L14 8 M14 24 L14 26 M10 10 Q10 8 12 8 L20 8 Q22 8 22 10 Q22 12 20 12 L12 12 Q10 12 10 14 Q10 16 12 16 L20 16 Q22 16 22 18 Q22 20 20 20 L12 20 Q10 20 10 22 Q10 24 12 24 L20 24 Q22 24 22 22" 
        stroke="white" stroke-width="1.5" fill="none" stroke-linecap="round"/>
  
  <!-- Small Chart -->
  <polyline points="6,22 10,18 14,20 18,14 22,16 26,12" 
            stroke="white" stroke-width="1.2" fill="none" stroke-linecap="round"/>
</svg>